# xmcd
#
# Track frame offsets:
#	150
#	14520
#	27882
#	40330
#	53855
#	66960
#	80172
#	93217
#	106050
#	119402
#	132810
#	144777
#	156702
#	170205
#	183110
#	195542
#	208710
#	221165
#	234582
#	246342
#	259600
#	272397
#	284307
#
# Disc length: 3959 seconds
#
# Revision: 1
# Processed by: cddbd v1.5PL3 Copyright (c) Steve Scherf et al.
# Submitted via: audiograbber 1.81.03
#
DISCID=520f7517
DTITLE=Big Bill Broonzy - Complete Recorded Works in Chronological Order Vol. 7
DYEAR=1937
DGENRE=Blues
TTITLE0=Made a Date With an Angel (Got No Walking Shoes) (take 2)
TTITLE1=Play Your Hand
TTITLE2=Hattie Blues (take 3)
TTITLE3=Somebody's Got to Go
TTITLE4=Good Boy
TTITLE5=I Want You By My Side
TTITLE6=Border BLues
TTITLE7=Sweetheart Land
TTITLE8=It's a Low Down Dirty Shame
TTITLE9=Got to Get Ready Tonight
TTITLE10=Trucking Little Woman
TTITLE11=Unemployment Stomp
TTITLE12=Why Do You Do That to Me
TTITLE13=It's Your Time Now
TTITLE14=I'll Start Cutting On You
TTITLE15=Sad Letter Blues
TTITLE16=The Mill Man Blues
TTITLE17=I'll Do Anything For You
TTITLE18=Sad Pencil BLues
TTITLE19=New Shake-Em On Down
TTITLE20=Night Time is the Right Time No. 2
TTITLE21=Let Me Dig It
TTITLE22=W. P. A. Rag
EXTD=DOCD-5129 13 October 1937 to 15 September 1938
EXTT0=
EXTT1=
EXTT2=
EXTT3=
EXTT4=
EXTT5=
EXTT6=
EXTT7=
EXTT8=
EXTT9=
EXTT10=
EXTT11=
EXTT12=
EXTT13=
EXTT14=
EXTT15=
EXTT16=
EXTT17=
EXTT18=
EXTT19=
EXTT20=
EXTT21=
EXTT22=
PLAYORDER=
